<svg width="100" height="21" viewBox="0 0 100 21" fill="none" xmlns="http://www.w3.org/2000/svg">
<path d="M20.2296 16.3392C19.3768 16.3392 18.6257 16.1657 17.9762 15.8186C17.3317 15.4716 16.826 14.9832 16.4591 14.3536C16.0971 13.7239 15.9162 12.9852 15.9162 12.1374V5.42183L17.7308 5.40696V12.0927C17.7308 12.4943 17.7977 12.8538 17.9316 13.1711C18.0704 13.4884 18.2563 13.7586 18.4893 13.9817C18.7224 14.1999 18.9901 14.366 19.2925 14.48C19.595 14.594 19.9073 14.651 20.2296 14.651C20.5618 14.651 20.8766 14.594 21.1741 14.48C21.4765 14.361 21.7442 14.1924 21.9773 13.9743C22.2103 13.7512 22.3937 13.481 22.5276 13.1637C22.6615 12.8464 22.7284 12.4894 22.7284 12.0927V5.40696H24.543V12.1374C24.543 12.9852 24.3595 13.7239 23.9927 14.3536C23.6307 14.9832 23.125 15.4716 22.4755 15.8186C21.831 16.1657 21.0823 16.3392 20.2296 16.3392ZM26.3238 6.86459V5.22104H28.1161V6.86459H26.3238ZM26.3238 16.1161V8.08425H28.1161V16.1161H26.3238ZM39.5433 16.1161V11.2375C39.5433 10.6872 39.4069 10.2583 39.1342 9.95092C38.8615 9.63857 38.4922 9.48239 38.0261 9.48239C37.7386 9.48239 37.4807 9.54932 37.2527 9.68319C37.0246 9.81209 36.8437 10.0055 36.7098 10.2633C36.5759 10.5161 36.509 10.8186 36.509 11.1706L35.7132 10.702C35.7083 10.1468 35.8322 9.6584 36.0851 9.23697C36.3429 8.81059 36.69 8.47841 37.1263 8.24042C37.5626 8.00244 38.0484 7.88345 38.5839 7.88345C39.4714 7.88345 40.1506 8.15118 40.6216 8.68664C41.0976 9.21714 41.3355 9.91621 41.3355 10.7839V16.1161H39.5433ZM29.8827 16.1161V8.08425H31.4668V10.5756H31.6899V16.1161H29.8827ZM34.7241 16.1161V11.2598C34.7241 10.6996 34.5878 10.2633 34.3151 9.95092C34.0424 9.63857 33.6706 9.48239 33.1996 9.48239C32.7434 9.48239 32.3765 9.63857 32.0989 9.95092C31.8262 10.2633 31.6899 10.6698 31.6899 11.1706L30.8867 10.6351C30.8867 10.1145 31.0156 9.646 31.2734 9.22953C31.5312 8.81307 31.8783 8.48584 32.3146 8.24786C32.7558 8.00492 33.2491 7.88345 33.7945 7.88345C34.3944 7.88345 34.8952 8.01236 35.2968 8.27017C35.7033 8.52303 36.0058 8.87008 36.2041 9.31134C36.4074 9.74764 36.509 10.241 36.509 10.7913V16.1161H34.7241ZM43.1266 16.1161V14.2792H44.9635V16.1161H43.1266Z" fill="#F5FF82"/>
<path d="M50.9884 16.1161V7.0877H47.5228V5.40696H56.2463V7.0877H52.7807V16.1161H50.9884ZM56.2484 16.1161V8.08425H57.8324V10.0402L57.6391 9.7873C57.7382 9.51957 57.8696 9.27664 58.0332 9.05849C58.2018 8.83538 58.4026 8.65193 58.6356 8.50815C58.8339 8.37429 59.0521 8.27017 59.2901 8.1958C59.533 8.11648 59.7809 8.06938 60.0337 8.0545C60.2866 8.03467 60.532 8.04459 60.77 8.08425V9.75756C60.532 9.68814 60.2569 9.66583 59.9445 9.69062C59.6371 9.71541 59.3595 9.80218 59.1116 9.95092C58.8637 10.0848 58.6604 10.2558 58.5017 10.4641C58.348 10.6723 58.234 10.9103 58.1596 11.178C58.0853 11.4408 58.0481 11.7259 58.0481 12.0333V16.1161H56.2484ZM63.8001 16.3392C63.22 16.3392 62.7292 16.2302 62.3276 16.012C61.926 15.7889 61.6211 15.4939 61.4128 15.127C61.2096 14.7601 61.1079 14.356 61.1079 13.9148C61.1079 13.5281 61.1724 13.181 61.3013 12.8736C61.4302 12.5613 61.6285 12.2935 61.8962 12.0704C62.164 11.8424 62.511 11.6564 62.9374 11.5127C63.2597 11.4086 63.6365 11.3144 64.0678 11.2301C64.5041 11.1458 64.9751 11.0689 65.4808 10.9995C65.9915 10.9252 66.5245 10.8458 67.0798 10.7615L66.4402 11.1259C66.4451 10.5707 66.3212 10.1616 66.0683 9.89886C65.8155 9.63609 65.3891 9.5047 64.7892 9.5047C64.4273 9.5047 64.0777 9.58899 63.7406 9.75756C63.4034 9.92613 63.1679 10.2162 63.0341 10.6277L61.398 10.1145C61.5963 9.43529 61.9731 8.88992 62.5284 8.47841C63.0886 8.0669 63.8422 7.86114 64.7892 7.86114C65.5031 7.86114 66.1303 7.97765 66.6707 8.21068C67.2161 8.4437 67.6202 8.82546 67.8829 9.35596C68.0267 9.63856 68.1135 9.9286 68.1432 10.2261C68.173 10.5186 68.1879 10.8384 68.1879 11.1854V16.1161H66.6187V14.3759L66.879 14.6585C66.517 15.2386 66.0931 15.6649 65.6073 15.9376C65.1263 16.2054 64.5239 16.3392 63.8001 16.3392ZM64.1571 14.9113C64.5636 14.9113 64.9107 14.8394 65.1982 14.6957C65.4858 14.5519 65.7138 14.3759 65.8824 14.1676C66.0559 13.9594 66.1725 13.7636 66.232 13.5801C66.3262 13.3521 66.3782 13.0918 66.3881 12.7993C66.403 12.5018 66.4104 12.2613 66.4104 12.0779L66.9608 12.2415C66.4204 12.3258 65.9568 12.4001 65.5701 12.4646C65.1833 12.529 64.8512 12.591 64.5735 12.6505C64.2959 12.7051 64.0505 12.767 63.8373 12.8364C63.629 12.9108 63.453 12.9976 63.3092 13.0967C63.1655 13.1959 63.0539 13.3099 62.9746 13.4388C62.9002 13.5677 62.863 13.719 62.863 13.8925C62.863 14.0908 62.9126 14.2668 63.0118 14.4205C63.1109 14.5692 63.2547 14.6882 63.4431 14.7775C63.6365 14.8667 63.8744 14.9113 64.1571 14.9113ZM73.1657 16.3392C72.3377 16.3392 71.6312 16.1558 71.0462 15.7889C70.4612 15.417 70.0125 14.9113 69.7001 14.2718C69.3927 13.6322 69.2365 12.9083 69.2316 12.1002C69.2365 11.2772 69.3977 10.5483 69.715 9.91373C70.0373 9.27416 70.4934 8.7734 71.0834 8.41147C71.6734 8.04459 72.3749 7.86114 73.188 7.86114C74.1003 7.86114 74.8712 8.09169 75.5009 8.55277C76.1355 9.00891 76.5495 9.63361 76.7429 10.4269L74.958 10.9103C74.8192 10.4789 74.5886 10.1443 74.2664 9.90629C73.9441 9.66335 73.5772 9.54188 73.1657 9.54188C72.6997 9.54188 72.3154 9.65344 72.013 9.87655C71.7106 10.0947 71.4875 10.3971 71.3437 10.7839C71.1999 11.1706 71.128 11.6093 71.128 12.1002C71.128 12.8637 71.299 13.481 71.6411 13.952C71.9832 14.423 72.4914 14.6585 73.1657 14.6585C73.6417 14.6585 74.016 14.5494 74.2887 14.3313C74.5663 14.1131 74.7746 13.7983 74.9134 13.3868L76.7429 13.7958C76.495 14.6139 76.0612 15.2435 75.4414 15.6848C74.8217 16.1211 74.0631 16.3392 73.1657 16.3392ZM77.7721 16.1161L77.7869 5.40696H79.6016V11.9514L82.5391 8.08425H84.7776L81.6616 12.1002L85.0454 16.1161H82.673L79.6016 12.2489V16.1161H77.7721ZM88.8504 16.3392C88.0373 16.3392 87.3234 16.1632 86.7086 15.8112C86.0938 15.4592 85.6129 14.9708 85.2658 14.3461C84.9237 13.7214 84.7527 13.0025 84.7527 12.1894C84.7527 11.3119 84.9212 10.5508 85.2584 9.90629C85.5955 9.2568 86.064 8.75357 86.664 8.3966C87.2639 8.03963 87.958 7.86114 88.7463 7.86114C89.5792 7.86114 90.2857 8.05698 90.8658 8.44866C91.4508 8.83538 91.8847 9.38323 92.1673 10.0922C92.4499 10.8012 92.5565 11.6366 92.4871 12.5985H90.7096V11.944C90.7047 11.0714 90.551 10.4343 90.2485 10.0327C89.9461 9.63113 89.4701 9.43033 88.8207 9.43033C88.0869 9.43033 87.5415 9.6584 87.1845 10.1145C86.8276 10.5657 86.6491 11.2276 86.6491 12.1002C86.6491 12.9133 86.8276 13.5429 87.1845 13.9892C87.5415 14.4354 88.0621 14.6585 88.7463 14.6585C89.1875 14.6585 89.5668 14.5618 89.8841 14.3684C90.2064 14.1701 90.4543 13.885 90.6278 13.5132L92.3978 14.0487C92.0904 14.7725 91.6145 15.3352 90.9699 15.7368C90.3304 16.1384 89.6238 16.3392 88.8504 16.3392ZM86.0839 12.5985V11.2449H91.6095V12.5985H86.0839ZM93.7002 16.1161V8.08425H95.2843V10.0402L95.0909 9.7873C95.1901 9.51957 95.3215 9.27664 95.4851 9.05849C95.6536 8.83538 95.8544 8.65193 96.0875 8.50815C96.2858 8.37429 96.5039 8.27017 96.7419 8.1958C96.9848 8.11648 97.2327 8.06938 97.4856 8.0545C97.7384 8.03467 97.9839 8.04459 98.2218 8.08425V9.75756C97.9839 9.68814 97.7087 9.66583 97.3964 9.69062C97.089 9.71541 96.8113 9.80218 96.5634 9.95092C96.3155 10.0848 96.1122 10.2558 95.9536 10.4641C95.7999 10.6723 95.6859 10.9103 95.6115 11.178C95.5371 11.4408 95.4999 11.7259 95.4999 12.0333V16.1161H93.7002Z" fill="#F5FF82"/>
<ellipse cx="2.87068" cy="10.6276" rx="2.74373" ry="6.68932" fill="#F5FF82"/>
<ellipse cx="6.43904" cy="10.6276" rx="2.74373" ry="6.68932" fill="#F5FF82"/>
<ellipse cx="10.0758" cy="10.6276" rx="2.74373" ry="6.68932" fill="#F5FF82"/>
</svg>
