<svg width="57" height="13" viewBox="0 0 57 13" fill="none" xmlns="http://www.w3.org/2000/svg">
<path d="M12.4208 9.75848C11.9103 9.75848 11.4608 9.65461 11.072 9.44689C10.6862 9.23916 10.3835 8.94686 10.1639 8.56998C9.94732 8.1931 9.839 7.75094 9.839 7.24349V3.22396L10.9251 3.21506V7.21678C10.9251 7.45715 10.9652 7.6723 11.0453 7.86222C11.1284 8.05214 11.2397 8.21388 11.3792 8.34741C11.5186 8.47799 11.6789 8.5774 11.8599 8.64565C12.0409 8.71391 12.2279 8.74803 12.4208 8.74803C12.6196 8.74803 12.808 8.71391 12.9861 8.64565C13.1671 8.57443 13.3273 8.47353 13.4668 8.34296C13.6063 8.20942 13.7161 8.04769 13.7962 7.85777C13.8763 7.66785 13.9164 7.45419 13.9164 7.21678V3.21506H15.0025V7.24349C15.0025 7.75094 14.8927 8.1931 14.6731 8.56998C14.4565 8.94686 14.1538 9.23916 13.7651 9.44689C13.3793 9.65461 12.9312 9.75848 12.4208 9.75848ZM16.0684 4.08751V3.10378H17.1412V4.08751H16.0684ZM16.0684 9.62494V4.81753H17.1412V9.62494H16.0684ZM23.9808 9.62494V6.70488C23.9808 6.37549 23.8992 6.11879 23.736 5.93481C23.5728 5.74785 23.3517 5.65437 23.0727 5.65437C22.9006 5.65437 22.7463 5.69444 22.6098 5.77456C22.4733 5.85172 22.365 5.96745 22.2849 6.12176C22.2047 6.27311 22.1647 6.45413 22.1647 6.66482L21.6884 6.38439C21.6854 6.05202 21.7596 5.75972 21.9109 5.50748C22.0653 5.25227 22.273 5.05345 22.5341 4.91101C22.7953 4.76856 23.0861 4.69734 23.4066 4.69734C23.9378 4.69734 24.3443 4.85759 24.6262 5.17808C24.9111 5.49561 25.0536 5.91403 25.0536 6.43335V9.62494H23.9808ZM18.1986 9.62494V4.81753H19.1467V6.30872H19.2802V9.62494H18.1986ZM21.0964 9.62494V6.71824C21.0964 6.3829 21.0147 6.12176 20.8515 5.93481C20.6883 5.74785 20.4658 5.65437 20.1838 5.65437C19.9108 5.65437 19.6912 5.74785 19.525 5.93481C19.3618 6.12176 19.2802 6.3651 19.2802 6.66482L18.7995 6.34433C18.7995 6.03274 18.8766 5.7523 19.0309 5.50303C19.1853 5.25376 19.393 5.0579 19.6541 4.91546C19.9182 4.77005 20.2135 4.69734 20.5399 4.69734C20.899 4.69734 21.1987 4.7745 21.4391 4.92881C21.6824 5.08016 21.8635 5.28788 21.9822 5.55199C22.1038 5.81314 22.1647 6.10841 22.1647 6.4378V9.62494H21.0964ZM26.1256 9.62494V8.52547H27.225V9.62494H26.1256Z" fill="#EEEEEE"/>
<path d="M31.6637 9.75848C31.1948 9.75848 30.772 9.67687 30.3951 9.51366C30.0212 9.35044 29.7125 9.11749 29.4692 8.8148C29.2288 8.50914 29.076 8.14711 29.0107 7.72868L30.1235 7.55953C30.2185 7.93938 30.4129 8.23316 30.7067 8.44089C31.0034 8.64862 31.3447 8.75248 31.7305 8.75248C31.959 8.75248 32.1741 8.71687 32.3759 8.64565C32.5777 8.57443 32.7409 8.47057 32.8655 8.33406C32.9932 8.19755 33.057 8.02989 33.057 7.83106C33.057 7.74204 33.0421 7.66043 33.0124 7.58624C32.9828 7.50909 32.9383 7.44083 32.8789 7.38148C32.8225 7.32213 32.7483 7.26871 32.6563 7.22123C32.5673 7.17079 32.4634 7.12776 32.3447 7.09215L30.6889 6.6025C30.5464 6.56096 30.3921 6.50606 30.2259 6.4378C30.0627 6.36658 29.9069 6.27014 29.7585 6.14847C29.6131 6.02383 29.4929 5.86655 29.398 5.67663C29.306 5.48374 29.26 5.24634 29.26 4.96442C29.26 4.55193 29.3639 4.20622 29.5716 3.92727C29.7823 3.64535 30.0642 3.43466 30.4173 3.29518C30.7734 3.15571 31.1681 3.08745 31.6014 3.09042C32.0406 3.09339 32.4323 3.16906 32.7765 3.31744C33.1208 3.46285 33.4086 3.67503 33.6401 3.95398C33.8715 4.23292 34.0348 4.56974 34.1297 4.96442L32.9768 5.16473C32.9294 4.9392 32.8374 4.74779 32.7009 4.59051C32.5673 4.43027 32.4026 4.3086 32.2068 4.22551C32.0139 4.14241 31.8076 4.0979 31.588 4.09197C31.3744 4.089 31.1755 4.12164 30.9916 4.18989C30.8105 4.25518 30.6636 4.35014 30.5509 4.47478C30.4411 4.59942 30.3862 4.74482 30.3862 4.91101C30.3862 5.06829 30.4337 5.19737 30.5286 5.29827C30.6236 5.3962 30.7408 5.47484 30.8803 5.53419C31.0227 5.59057 31.1666 5.63805 31.312 5.67663L32.4605 5.99712C32.6178 6.03867 32.7943 6.09505 32.9902 6.16627C33.186 6.2375 33.3745 6.33691 33.5555 6.46451C33.7365 6.59212 33.8849 6.75978 34.0006 6.96751C34.1193 7.17524 34.1787 7.43935 34.1787 7.75984C34.1787 8.09221 34.1089 8.38451 33.9695 8.63675C33.833 8.88602 33.6475 9.09375 33.4131 9.25993C33.1786 9.42611 32.9101 9.55075 32.6074 9.63384C32.3077 9.71693 31.9931 9.75848 31.6637 9.75848ZM37.6928 9.62494C37.3753 9.68429 37.0637 9.70951 36.758 9.70061C36.4553 9.69468 36.1838 9.63978 35.9434 9.53591C35.703 9.42908 35.5205 9.26142 35.3959 9.03292C35.2861 8.82519 35.2282 8.61301 35.2223 8.39638C35.2164 8.17975 35.2134 7.93493 35.2134 7.66191V3.48214H36.2817V7.59959C36.2817 7.79248 36.2832 7.96163 36.2862 8.10704C36.2921 8.25245 36.3233 8.37115 36.3796 8.46315C36.4865 8.6412 36.6571 8.74061 36.8915 8.76139C37.126 8.78216 37.3931 8.77029 37.6928 8.72578V9.62494ZM34.3409 5.65883V4.81753H37.6928V5.65883H34.3409ZM40.2622 9.76293C39.9061 9.76293 39.6123 9.70358 39.3809 9.58488C39.1494 9.46618 38.9654 9.31483 38.8289 9.13084C38.6924 8.94686 38.5915 8.751 38.5262 8.54327C38.4609 8.33554 38.4179 8.13969 38.3971 7.9557C38.3793 7.76874 38.3704 7.6174 38.3704 7.50167V4.81753H39.4565V7.13221C39.4565 7.28058 39.4669 7.44825 39.4877 7.63521C39.5085 7.81919 39.556 7.99724 39.6301 8.16936C39.7073 8.33851 39.8201 8.47799 39.9684 8.58778C40.1198 8.69758 40.3231 8.75248 40.5783 8.75248C40.7148 8.75248 40.8498 8.73023 40.9833 8.68571C41.1169 8.6412 41.2371 8.56553 41.3439 8.4587C41.4537 8.3489 41.5412 8.19904 41.6065 8.00912C41.6718 7.81919 41.7045 7.57882 41.7045 7.288L42.341 7.55953C42.341 7.96905 42.2609 8.34 42.1006 8.67236C41.9433 9.00472 41.7104 9.27032 41.4018 9.46914C41.0931 9.665 40.7133 9.76293 40.2622 9.76293ZM41.8335 9.62494V8.13375H41.7045V4.81753H42.7817V9.62494H41.8335ZM45.6926 9.75848C45.2504 9.75848 44.8647 9.6472 44.5353 9.42463C44.2059 9.20206 43.9507 8.89938 43.7696 8.51656C43.5886 8.13375 43.4981 7.70197 43.4981 7.22123C43.4981 6.73456 43.5886 6.3013 43.7696 5.92145C43.9536 5.53864 44.2133 5.23744 44.5486 5.01784C44.884 4.79527 45.2786 4.68399 45.7327 4.68399C46.1897 4.68399 46.5725 4.79527 46.8811 5.01784C47.1927 5.23744 47.4286 5.53864 47.5889 5.92145C47.7491 6.30427 47.8292 6.73753 47.8292 7.22123C47.8292 7.69901 47.7491 8.13078 47.5889 8.51656C47.4286 8.89938 47.1897 9.20206 46.8722 9.42463C46.5547 9.6472 46.1615 9.75848 45.6926 9.75848ZM45.8573 8.797C46.1452 8.797 46.3766 8.73171 46.5517 8.60114C46.7298 8.4676 46.8589 8.28213 46.939 8.04473C47.0221 7.80732 47.0636 7.53283 47.0636 7.22123C47.0636 6.90668 47.0221 6.63218 46.939 6.39774C46.8589 6.16034 46.7327 5.97635 46.5606 5.84578C46.3885 5.71224 46.1659 5.64547 45.8929 5.64547C45.6051 5.64547 45.3677 5.71669 45.1807 5.85913C44.9938 5.99861 44.8558 6.18853 44.7667 6.4289C44.6777 6.6663 44.6332 6.93042 44.6332 7.22123C44.6332 7.51502 44.6762 7.7821 44.7623 8.02247C44.8513 8.25987 44.9863 8.44831 45.1674 8.58778C45.3484 8.72726 45.5784 8.797 45.8573 8.797ZM47.0636 9.62494V6.25085H46.9301V3.21506H48.0117V9.62494H47.0636ZM49.0817 4.08751V3.10378H50.1545V4.08751H49.0817ZM49.0817 9.62494V4.81753H50.1545V9.62494H49.0817ZM53.3441 9.75848C52.8633 9.75848 52.4434 9.65016 52.0843 9.43353C51.7253 9.2169 51.4463 8.91867 51.2475 8.53882C51.0516 8.15601 50.9537 7.71681 50.9537 7.22123C50.9537 6.71675 51.0546 6.27459 51.2564 5.89474C51.4582 5.5149 51.7386 5.21815 52.0977 5.00448C52.4568 4.79082 52.8722 4.68399 53.3441 4.68399C53.8278 4.68399 54.2492 4.7923 54.6082 5.00894C54.9673 5.22557 55.2462 5.52529 55.4451 5.9081C55.6439 6.28794 55.7433 6.72566 55.7433 7.22123C55.7433 7.71978 55.6424 8.16046 55.4406 8.54327C55.2418 8.92312 54.9628 9.22135 54.6038 9.43798C54.2447 9.65165 53.8248 9.75848 53.3441 9.75848ZM53.3441 8.75248C53.7714 8.75248 54.0889 8.61004 54.2966 8.32516C54.5044 8.04027 54.6082 7.6723 54.6082 7.22123C54.6082 6.75533 54.5029 6.38439 54.2922 6.10841C54.0815 5.82946 53.7654 5.68998 53.3441 5.68998C53.0562 5.68998 52.8188 5.75527 52.6318 5.88584C52.4479 6.01345 52.3114 6.19298 52.2223 6.42445C52.1333 6.65295 52.0888 6.91855 52.0888 7.22123C52.0888 7.68714 52.1941 8.05956 52.4048 8.33851C52.6185 8.61449 52.9316 8.75248 53.3441 8.75248Z" fill="#EEEEEE"/>
<ellipse cx="2.03091" cy="6.91653" rx="1.64224" ry="4.00384" fill="#EEEEEE"/>
<ellipse cx="4.16665" cy="6.91653" rx="1.64224" ry="4.00384" fill="#EEEEEE"/>
<ellipse cx="6.34341" cy="6.91653" rx="1.64224" ry="4.00384" fill="#EEEEEE"/>
</svg>
